# xmcd
# 
# Track frame offsets:
#     150
#     12957
#     25911
#     39346
#     52378
#     62471
#     75369
#     88902
#     101779
#     115103
#     128102
#     140439
#     153227
#     165432
#     177174
#     190029
#     201498
#     211584
#     222589
#     235317
#     246071
#     257754
#     270346
#     283801
#     296719
#     308220
#     318574
#     330322
# 
# Disc length: 4561
# 
# Revision: 2
# Processed by: cddbd v1.5.2PL0 Copyright (c) Steve Scherf et al.
# Submitted via: fre:ac v1.0.31
# 
DISCID=9211cf1c
DTITLE=Motown - Complete Motown Singles - Volume 05 - Disc 26
DYEAR=2006
DGENRE=R&B
TTITLE0=Marvin Gaye - Ain't That Peculiar (1st pressing Berry Gordy mix) (mono)
TTITLE1=Marvin Gaye - She's Got To Be Real (mono)
TTITLE2=Marvin Gaye - Ain't That Peculiar (2nd pressing George Gordy mix) (mono)
TTITLE3=The Miracles - My Girl Has Gone (1st pressing mix) (mono)
TTITLE4=The Miracles - Since You Won My Heart (mono)
TTITLE5=The Miracles - My Girl Has Gone (2nd pressing mix) (mono)
TTITLE6=The Temptations - My Baby (1st pressing Harold Taylor mix) (mono)
TTITLE7=The Temptations - Don't Look Back (1st pressing Brian Holland mix) (mono)
TTITLE8=The Temptations - My Baby (2nd pressing Brian Holland mix) (mono)
TTITLE9=The Temptations - Don't Look Back (2nd pressing Brian Holland mix) (mono)
TTITLE10=Earl Van Dyke and The Soul Brothers - I Can't Help Myself (Sugar Pie, Honey Bunch) (mono)
TTITLE11=Earl Van Dyke and The Soul Brothers - How Sweet It Is (To Be Loved By You) (mono)
TTITLE12=The Supremes - I Hear A Symphony (mono)
TTITLE13=The Supremes - Who Could Ever Doubt My Love (mono)
TTITLE14=Jimmy Ruffin - As Long As There Is L-O-V-E Love (mono)
TTITLE15=Jimmy Ruffin - How Can I Say I'm Sorry (mono)
TTITLE16=The Headliners - We Call It Fun (mono)
TTITLE17=The Headliners - Voodoo Plan (mono)
TTITLE18=The Four Tops - Something About You (mono)
TTITLE19=The Four Tops - Darling, I Hum Our Song (mono)
TTITLE20=The Dalton Boys - I've Been Cheated (mono)
TTITLE21=The Dalton Boys - Take My Hand (mono)
TTITLE22=The Dalton Boys - Something's Bothering You (mono)
TTITLE23=R. Dean Taylor - Let's Go Somewhere (mono)
TTITLE24=The Monitors - Say You (mono)
TTITLE25=The Monitors - All For Someone (mono)
TTITLE26=Tammi Terrell - I Can't Believe You Love Me (mono)
TTITLE27=Tammi Terrell - Hold Me, Oh My Darling (mono)
EXTD=
EXTT0=
EXTT1=
EXTT2=
EXTT3=
EXTT4=
EXTT5=
EXTT6=
EXTT7=
EXTT8=
EXTT9=
EXTT10=
EXTT11=
EXTT12=
EXTT13=
EXTT14=
EXTT15=
EXTT16=
EXTT17=
EXTT18=
EXTT19=
EXTT20=
EXTT21=
EXTT22=
EXTT23=
EXTT24=
EXTT25=
EXTT26=
EXTT27=
PLAYORDER=
